<svg xmlns="http://www.w3.org/2000/svg" version="1.1" xmlns:xlink="http://www.w3.org/1999/xlink" xmlns:svgjs="http://svgjs.com/svgjs" width="1080" height="1920" preserveAspectRatio="none" viewBox="0 0 1080 1920">
    <g mask="url(&quot;#SvgjsMask1018&quot;)" fill="none">
        <path d="M172.787,447.708C225.847,446.236,272.967,418.196,301.446,373.403C332.454,324.631,350.148,263.449,322.04,212.951C293.345,161.398,231.721,139.45,172.787,142.262C118.639,144.846,73.992,179.49,46.322,226.107C17.959,273.891,3.596,332.641,31.139,380.903C58.872,429.498,116.857,449.26,172.787,447.708" fill="rgba(19, 64, 113, 0.92)" class="triangle-float1"></path>
        <path d="M694.048,1831.588C756.501,1828.512,801.308,1779.006,832.911,1725.051C864.971,1670.317,889.61,1605.193,859.293,1549.475C827.971,1491.911,759.574,1468.841,694.048,1469.842C630.435,1470.814,570.452,1500.079,537.327,1554.395C502.768,1611.062,496.618,1682.227,529.285,1740.005C562.431,1798.63,626.783,1834.901,694.048,1831.588" fill="rgba(19, 64, 113, 0.92)" class="triangle-float1"></path>
        <path d="M453.466,148.58C499.634,150.477,545.363,126.836,566.516,85.755C586.305,47.325,571.1,2.397,547.329,-33.706C526.224,-65.76,491.827,-87.107,453.466,-85.948C416.933,-84.844,387.772,-59.641,368.937,-28.318C349.374,4.217,339.068,42.829,355.436,77.083C374.125,116.195,410.155,146.801,453.466,148.58" fill="rgba(19, 64, 113, 0.92)" class="triangle-float3"></path>
        <path d="M812.382,1955.173C853.172,1953.838,876.454,1912.49,894.727,1875.997C910.613,1844.271,919.41,1807.632,901.636,1776.924C883.89,1746.263,847.756,1735.654,812.382,1733.726C772.2,1731.536,725.808,1732.031,704.521,1766.182C682.488,1801.528,699.491,1845.539,720.136,1881.713C741.018,1918.302,770.276,1956.552,812.382,1955.173" fill="rgba(19, 64, 113, 0.92)" class="triangle-float3"></path>
        <path d="M1134.504,1548.185C1216.639,1550.762,1308.964,1536.487,1348.795,1464.611C1387.906,1394.034,1347.554,1310.915,1303.422,1243.364C1264.375,1183.597,1205.893,1136.076,1134.504,1136.606C1063.92,1137.13,1006.618,1185.573,969.874,1245.841C931.218,1309.245,906.788,1386.641,942.3,1451.859C979.031,1519.316,1057.733,1545.777,1134.504,1548.185" fill="rgba(19, 64, 113, 0.92)" class="triangle-float2"></path>
        <path d="M620.084,1551.18C674.73,1551.143,733.167,1545.687,764.559,1500.958C800.466,1449.797,811.952,1378.835,777.768,1326.507C745.635,1277.319,678.677,1275.457,620.084,1279.804C570.489,1283.484,525.539,1305.625,498.313,1347.241C467.873,1393.769,446.766,1453.415,475.27,1501.154C503.332,1548.151,565.347,1551.217,620.084,1551.18" fill="rgba(19, 64, 113, 0.92)" class="triangle-float3"></path>
        <path d="M338.858,278.832C396.635,280.104,458.444,263.451,486.61,212.989C514.276,163.423,494.816,103.054,463.338,55.816C435.558,14.127,388.946,-7.807,338.858,-8.737C286.852,-9.703,233.998,7.136,206.104,51.039C176.266,98.001,173.947,158.649,201.963,206.721C229.796,254.48,283.593,277.615,338.858,278.832" fill="rgba(19, 64, 113, 0.92)" class="triangle-float3"></path>
        <path d="M669.12,857.487C762.619,858.187,865.802,849.816,916.139,771.02C969.396,687.653,955.975,576.77,900.983,494.537C851.376,420.356,758.294,405.046,669.12,401.634C570.981,397.879,458.336,393.496,404.345,475.535C346.833,562.924,368.823,681.391,428.424,767.369C480.736,842.832,577.301,856.8,669.12,857.487" fill="rgba(19, 64, 113, 0.92)" class="triangle-float1"></path>
        <path d="M709.192,1117.929C815.287,1122.541,933.197,1109.795,989.826,1019.959C1049.197,925.774,1025.122,804.045,966.855,709.173C911.469,618.992,814.862,557.187,709.192,563.029C611.601,568.424,544.042,649.74,496.562,735.173C450.802,817.51,422.113,914.924,467.858,997.269C514.67,1081.535,612.887,1113.743,709.192,1117.929" fill="rgba(19, 64, 113, 0.92)" class="triangle-float3"></path>
        <path d="M1033.155,1737.776C1144.899,1746.949,1253.821,1685.835,1309.091,1588.284C1363.658,1491.973,1351.344,1373.029,1293.167,1278.855C1237.962,1189.492,1138.191,1142.579,1033.155,1141.613C926.231,1140.629,813.242,1178.706,764.724,1273.994C719.114,1363.572,775.566,1461.62,825.92,1548.62C876.135,1635.378,933.249,1729.575,1033.155,1737.776" fill="rgba(19, 64, 113, 0.92)" class="triangle-float3"></path>
        <path d="M565.417,1436.663C614.721,1434.218,662.37,1413.46,686.734,1370.526C710.811,1328.097,705.047,1276.197,680.351,1234.126C655.987,1192.62,613.545,1164.131,565.417,1163.856C516.829,1163.578,474.823,1192.163,448.183,1232.798C418.162,1278.592,394.002,1336.222,421.299,1383.69C448.645,1431.244,510.628,1439.38,565.417,1436.663" fill="rgba(19, 64, 113, 0.92)" class="triangle-float1"></path>
        <path d="M67.667,1786.544C134.035,1786.693,193.391,1751.436,229.867,1695.99C270.926,1633.578,298.735,1555.171,263.061,1489.532C226.217,1421.741,144.782,1395.046,67.667,1397.55C-4.897,1399.906,-72.396,1437.677,-106.922,1501.544C-139.917,1562.577,-129.519,1636.102,-93.276,1695.264C-58.745,1751.632,1.563,1786.396,67.667,1786.544" fill="rgba(19, 64, 113, 0.92)" class="triangle-float1"></path>
        <path d="M435.726,1707.997C498.498,1709.222,563.645,1691.322,596.966,1638.11C632.117,1581.976,628.888,1509.974,595.575,1452.729C562.461,1395.826,501.488,1357.888,435.726,1361.035C374.407,1363.969,330.183,1413.206,300.347,1466.857C271.546,1518.648,256.018,1580.349,285.029,1632.023C314.545,1684.598,375.443,1706.821,435.726,1707.997" fill="rgba(19, 64, 113, 0.92)" class="triangle-float3"></path>
        <path d="M88.354,1196.125C116.447,1195.228,136.726,1171.611,149.432,1146.54C160.795,1124.118,161.84,1097.874,149.14,1076.181C136.571,1054.712,113.165,1044.042,88.354,1042.212C59.107,1040.055,25.376,1041.078,9.76,1065.901C-6.486,1091.726,4.361,1124.547,20.126,1150.668C35.261,1175.745,59.079,1197.06,88.354,1196.125" fill="rgba(19, 64, 113, 0.92)" class="triangle-float2"></path>
        <path d="M793.001,752.091C902.469,753.604,1013.309,713.527,1069.214,619.399C1126.165,523.508,1118.301,400.683,1057.073,307.465C1001.071,222.203,894.961,202.043,793.001,198.872C683.027,195.451,557.995,197.321,498.855,290.102C436.768,387.506,467.667,514.505,529.704,611.941C586.936,701.831,686.448,750.618,793.001,752.091" fill="rgba(19, 64, 113, 0.92)" class="triangle-float3"></path>
        <path d="M381.31,430.944C440.461,433.835,510.468,434.845,540.175,383.613C569.929,332.3,535.209,271.407,502.518,221.913C474.049,178.811,432.859,146.397,381.31,143.089C323.031,139.349,259.563,154.173,229.788,204.411C199.586,255.37,214.309,320.058,247.243,369.296C276.553,413.116,328.654,428.37,381.31,430.944" fill="rgba(19, 64, 113, 0.92)" class="triangle-float2"></path>
        <path d="M335.378,244.121C363.983,246.339,395.474,242.651,411.637,218.946C429.544,192.683,429.964,156.995,413.201,129.987C397.208,104.22,365.705,95.951,335.378,96.083C305.334,96.214,272.53,103.978,258.719,130.659C245.577,156.047,261.172,184.833,277.176,208.521C290.822,228.718,311.076,242.237,335.378,244.121" fill="rgba(19, 64, 113, 0.92)" class="triangle-float1"></path>
        <path d="M63.956,2078.634C120.134,2079.219,158.486,2028.084,185.446,1978.794C211.041,1931.999,223.941,1877.78,199.843,1830.197C173.418,1778.021,122.437,1738.179,63.956,1738.909C6.48,1739.627,-40.734,1781.977,-66.176,1833.52C-88.849,1879.452,-77.248,1931.066,-53.229,1976.308C-27.166,2025.4,8.378,2078.055,63.956,2078.634" fill="rgba(19, 64, 113, 0.92)" class="triangle-float2"></path>
        <path d="M136.232,641.159C177.556,638.627,219.006,624.3,239.315,588.222C259.301,552.718,251.336,509.28,230.014,474.562C209.763,441.588,174.877,422.362,136.232,420.374C93.309,418.166,48.777,428.777,24.107,463.972C-4.446,504.707,-17.925,560.316,8.675,602.352C34.146,642.604,88.687,644.072,136.232,641.159" fill="rgba(19, 64, 113, 0.92)" class="triangle-float2"></path>
        <path d="M446.216,1155.228C503.44,1155.596,556.02,1122.877,583.476,1072.669C609.892,1024.363,603.049,966.449,575.521,918.768C547.992,871.085,501.274,834.591,446.216,834.916C391.64,835.238,346.511,872.839,319.528,920.279C292.886,967.12,286.408,1023.49,311.983,1070.921C338.861,1120.767,389.586,1154.863,446.216,1155.228" fill="rgba(19, 64, 113, 0.92)" class="triangle-float3"></path>
    </g>
    <defs>
        <mask id="SvgjsMask1018">
            <rect width="1080" height="1920" fill="#ffffff"></rect>
        </mask>
        <style>
            @keyframes float1 {
                0%{transform: translate(0, 0)}
                50%{transform: translate(-10px, 0)}
                100%{transform: translate(0, 0)}
            }

            .triangle-float1 {
                animation: float1 5s infinite;
            }

            @keyframes float2 {
                0%{transform: translate(0, 0)}
                50%{transform: translate(-5px, -5px)}
                100%{transform: translate(0, 0)}
            }

            .triangle-float2 {
                animation: float2 4s infinite;
            }

            @keyframes float3 {
                0%{transform: translate(0, 0)}
                50%{transform: translate(0, -10px)}
                100%{transform: translate(0, 0)}
            }

            .triangle-float3 {
                animation: float3 6s infinite;
            }
        </style>
    </defs>
</svg>