<svg xmlns="http://www.w3.org/2000/svg" version="1.1" xmlns:xlink="http://www.w3.org/1999/xlink" xmlns:svgjs="http://svgjs.com/svgjs" width="1440" height="2560" preserveAspectRatio="none" viewBox="0 0 1440 2560">
    <g mask="url(&quot;#SvgjsMask2130&quot;)" fill="none">
        <rect width="1440" height="2560" x="0" y="0" fill="url(#SvgjsLinearGradient2131)"></rect>
        <path d="M209 1738L988 2517" stroke-width="6" stroke="url(#SvgjsLinearGradient2132)" stroke-linecap="round" class="BottomRight"></path>
        <path d="M53 1586L706 2239" stroke-width="6" stroke="url(#SvgjsLinearGradient2132)" stroke-linecap="round" class="BottomRight"></path>
        <path d="M1408 2311L1862 2765" stroke-width="6" stroke="url(#SvgjsLinearGradient2133)" stroke-linecap="round" class="TopLeft"></path>
        <path d="M1089 839L1628 1378" stroke-width="10" stroke="url(#SvgjsLinearGradient2132)" stroke-linecap="round" class="BottomRight"></path>
        <path d="M452 461L1154 1163" stroke-width="10" stroke="url(#SvgjsLinearGradient2133)" stroke-linecap="round" class="TopLeft"></path>
        <path d="M716 128L101 -487" stroke-width="10" stroke="url(#SvgjsLinearGradient2133)" stroke-linecap="round" class="TopLeft"></path>
        <path d="M15 1074L-740 319" stroke-width="8" stroke="url(#SvgjsLinearGradient2133)" stroke-linecap="round" class="TopLeft"></path>
        <path d="M211 1969L1011 2769" stroke-width="6" stroke="url(#SvgjsLinearGradient2133)" stroke-linecap="round" class="TopLeft"></path>
        <path d="M885 1731L62 908" stroke-width="6" stroke="url(#SvgjsLinearGradient2133)" stroke-linecap="round" class="TopLeft"></path>
        <path d="M16 1183L-414 753" stroke-width="8" stroke="url(#SvgjsLinearGradient2133)" stroke-linecap="round" class="TopLeft"></path>
        <path d="M124 1770L-698 948" stroke-width="8" stroke="url(#SvgjsLinearGradient2132)" stroke-linecap="round" class="BottomRight"></path>
        <path d="M425 1053L943 1571" stroke-width="6" stroke="url(#SvgjsLinearGradient2133)" stroke-linecap="round" class="TopLeft"></path>
        <path d="M875 1486L1737 2348" stroke-width="8" stroke="url(#SvgjsLinearGradient2132)" stroke-linecap="round" class="BottomRight"></path>
        <path d="M653 1124L62 533" stroke-width="8" stroke="url(#SvgjsLinearGradient2132)" stroke-linecap="round" class="BottomRight"></path>
        <path d="M872 811L22 -39" stroke-width="6" stroke="url(#SvgjsLinearGradient2132)" stroke-linecap="round" class="BottomRight"></path>
        <path d="M1331 1719L335 723" stroke-width="10" stroke="url(#SvgjsLinearGradient2132)" stroke-linecap="round" class="BottomRight"></path>
        <path d="M1319 1762L2066 2509" stroke-width="10" stroke="url(#SvgjsLinearGradient2133)" stroke-linecap="round" class="TopLeft"></path>
        <path d="M34 656L467 1089" stroke-width="8" stroke="url(#SvgjsLinearGradient2133)" stroke-linecap="round" class="TopLeft"></path>
        <path d="M1073 1234L1652 1813" stroke-width="10" stroke="url(#SvgjsLinearGradient2133)" stroke-linecap="round" class="TopLeft"></path>
        <path d="M1041 1742L145 846" stroke-width="6" stroke="url(#SvgjsLinearGradient2132)" stroke-linecap="round" class="BottomRight"></path>
        <path d="M272 1819L1084 2631" stroke-width="8" stroke="url(#SvgjsLinearGradient2133)" stroke-linecap="round" class="TopLeft"></path>
        <path d="M1429 1875L891 1337" stroke-width="8" stroke="url(#SvgjsLinearGradient2133)" stroke-linecap="round" class="TopLeft"></path>
        <path d="M703 76L254 -373" stroke-width="6" stroke="url(#SvgjsLinearGradient2132)" stroke-linecap="round" class="BottomRight"></path>
        <path d="M1293 697L2262 1666" stroke-width="8" stroke="url(#SvgjsLinearGradient2132)" stroke-linecap="round" class="BottomRight"></path>
        <path d="M587 474L192 79" stroke-width="6" stroke="url(#SvgjsLinearGradient2133)" stroke-linecap="round" class="TopLeft"></path>
        <path d="M65 951L-977 -91" stroke-width="8" stroke="url(#SvgjsLinearGradient2132)" stroke-linecap="round" class="BottomRight"></path>
        <path d="M1113 813L1718 1418" stroke-width="6" stroke="url(#SvgjsLinearGradient2133)" stroke-linecap="round" class="TopLeft"></path>
        <path d="M915 483L117 -315" stroke-width="10" stroke="url(#SvgjsLinearGradient2133)" stroke-linecap="round" class="TopLeft"></path>
        <path d="M1291 1750L552 1011" stroke-width="8" stroke="url(#SvgjsLinearGradient2132)" stroke-linecap="round" class="BottomRight"></path>
        <path d="M58 755L1070 1767" stroke-width="10" stroke="url(#SvgjsLinearGradient2132)" stroke-linecap="round" class="BottomRight"></path>
        <path d="M687 1955L95 1363" stroke-width="10" stroke="url(#SvgjsLinearGradient2133)" stroke-linecap="round" class="TopLeft"></path>
        <path d="M1078 293L1795 1010" stroke-width="10" stroke="url(#SvgjsLinearGradient2132)" stroke-linecap="round" class="BottomRight"></path>
        <path d="M81 1007L748 1674" stroke-width="10" stroke="url(#SvgjsLinearGradient2132)" stroke-linecap="round" class="BottomRight"></path>
        <path d="M810 43L69 -698" stroke-width="10" stroke="url(#SvgjsLinearGradient2133)" stroke-linecap="round" class="TopLeft"></path>
        <path d="M498 1218L1544 2264" stroke-width="10" stroke="url(#SvgjsLinearGradient2132)" stroke-linecap="round" class="BottomRight"></path>
        <path d="M266 2184L-549 1369" stroke-width="10" stroke="url(#SvgjsLinearGradient2132)" stroke-linecap="round" class="BottomRight"></path>
        <path d="M1018 936L1508 1426" stroke-width="10" stroke="url(#SvgjsLinearGradient2132)" stroke-linecap="round" class="BottomRight"></path>
        <path d="M467 327L1072 932" stroke-width="6" stroke="url(#SvgjsLinearGradient2132)" stroke-linecap="round" class="BottomRight"></path>
        <path d="M246 1226L-645 335" stroke-width="6" stroke="url(#SvgjsLinearGradient2133)" stroke-linecap="round" class="TopLeft"></path>
        <path d="M536 2255L1227 2946" stroke-width="6" stroke="url(#SvgjsLinearGradient2133)" stroke-linecap="round" class="TopLeft"></path>
        <path d="M36 2330L-440 1854" stroke-width="8" stroke="url(#SvgjsLinearGradient2132)" stroke-linecap="round" class="BottomRight"></path>
        <path d="M815 1941L1782 2908" stroke-width="10" stroke="url(#SvgjsLinearGradient2133)" stroke-linecap="round" class="TopLeft"></path>
        <path d="M582 1019L-301 136" stroke-width="10" stroke="url(#SvgjsLinearGradient2133)" stroke-linecap="round" class="TopLeft"></path>
        <path d="M1002 1364L1728 2090" stroke-width="8" stroke="url(#SvgjsLinearGradient2133)" stroke-linecap="round" class="TopLeft"></path>
        <path d="M800 2454L438 2092" stroke-width="10" stroke="url(#SvgjsLinearGradient2132)" stroke-linecap="round" class="BottomRight"></path>
        <path d="M1139 1968L2017 2846" stroke-width="8" stroke="url(#SvgjsLinearGradient2132)" stroke-linecap="round" class="BottomRight"></path>
        <path d="M914 141L37 -736" stroke-width="8" stroke="url(#SvgjsLinearGradient2133)" stroke-linecap="round" class="TopLeft"></path>
        <path d="M1113 686L1830 1403" stroke-width="10" stroke="url(#SvgjsLinearGradient2132)" stroke-linecap="round" class="BottomRight"></path>
        <path d="M206 2555L1020 3369" stroke-width="6" stroke="url(#SvgjsLinearGradient2133)" stroke-linecap="round" class="TopLeft"></path>
        <path d="M424 2043L-427 1192" stroke-width="6" stroke="url(#SvgjsLinearGradient2133)" stroke-linecap="round" class="TopLeft"></path>
        <path d="M22 1448L1039 2465" stroke-width="10" stroke="url(#SvgjsLinearGradient2132)" stroke-linecap="round" class="BottomRight"></path>
        <path d="M656 2134L-290 1188" stroke-width="10" stroke="url(#SvgjsLinearGradient2133)" stroke-linecap="round" class="TopLeft"></path>
        <path d="M1082 1416L1918 2252" stroke-width="8" stroke="url(#SvgjsLinearGradient2132)" stroke-linecap="round" class="BottomRight"></path>
        <path d="M225 1077L-443 409" stroke-width="10" stroke="url(#SvgjsLinearGradient2133)" stroke-linecap="round" class="TopLeft"></path>
        <path d="M653 1124L1578 2049" stroke-width="10" stroke="url(#SvgjsLinearGradient2133)" stroke-linecap="round" class="TopLeft"></path>
        <path d="M1340 1075L1892 1627" stroke-width="8" stroke="url(#SvgjsLinearGradient2133)" stroke-linecap="round" class="TopLeft"></path>
        <path d="M1434 2025L1887 2478" stroke-width="6" stroke="url(#SvgjsLinearGradient2132)" stroke-linecap="round" class="BottomRight"></path>
        <path d="M421 356L1268 1203" stroke-width="8" stroke="url(#SvgjsLinearGradient2133)" stroke-linecap="round" class="TopLeft"></path>
        <path d="M37 1907L991 2861" stroke-width="6" stroke="url(#SvgjsLinearGradient2132)" stroke-linecap="round" class="BottomRight"></path>
        <path d="M1179 1975L161 957" stroke-width="10" stroke="url(#SvgjsLinearGradient2133)" stroke-linecap="round" class="TopLeft"></path>
        <path d="M468 2407L73 2012" stroke-width="8" stroke="url(#SvgjsLinearGradient2132)" stroke-linecap="round" class="BottomRight"></path>
        <path d="M423 91L-640 -972" stroke-width="10" stroke="url(#SvgjsLinearGradient2133)" stroke-linecap="round" class="TopLeft"></path>
        <path d="M997 2219L180 1402" stroke-width="8" stroke="url(#SvgjsLinearGradient2133)" stroke-linecap="round" class="TopLeft"></path>
        <path d="M127 2280L939 3092" stroke-width="10" stroke="url(#SvgjsLinearGradient2132)" stroke-linecap="round" class="BottomRight"></path>
        <path d="M670 1863L-217 976" stroke-width="8" stroke="url(#SvgjsLinearGradient2133)" stroke-linecap="round" class="TopLeft"></path>
        <path d="M1287 1496L344 553" stroke-width="6" stroke="url(#SvgjsLinearGradient2132)" stroke-linecap="round" class="BottomRight"></path>
        <path d="M220 2267L938 2985" stroke-width="10" stroke="url(#SvgjsLinearGradient2132)" stroke-linecap="round" class="BottomRight"></path>
        <path d="M104 979L-940 -65" stroke-width="6" stroke="url(#SvgjsLinearGradient2132)" stroke-linecap="round" class="BottomRight"></path>
        <path d="M1132 1080L204 152" stroke-width="6" stroke="url(#SvgjsLinearGradient2132)" stroke-linecap="round" class="BottomRight"></path>
        <path d="M961 1426L259 724" stroke-width="8" stroke="url(#SvgjsLinearGradient2132)" stroke-linecap="round" class="BottomRight"></path>
        <path d="M719 1608L1432 2321" stroke-width="6" stroke="url(#SvgjsLinearGradient2132)" stroke-linecap="round" class="BottomRight"></path>
        <path d="M99 305L766 972" stroke-width="10" stroke="url(#SvgjsLinearGradient2133)" stroke-linecap="round" class="TopLeft"></path>
        <path d="M429 223L1121 915" stroke-width="8" stroke="url(#SvgjsLinearGradient2132)" stroke-linecap="round" class="BottomRight"></path>
        <path d="M1089 526L1505 942" stroke-width="8" stroke="url(#SvgjsLinearGradient2132)" stroke-linecap="round" class="BottomRight"></path>
    </g>
    <defs>
        <mask id="SvgjsMask2130">
            <rect width="1440" height="2560" fill="#ffffff"></rect>
        </mask>
        <linearGradient x1="-19.44%" y1="10.94%" x2="119.44%" y2="89.06%" gradientUnits="userSpaceOnUse" id="SvgjsLinearGradient2131">
            <stop stop-color="rgba(14, 42, 71, 1)" offset="0.19"></stop>
            <stop stop-color="rgba(87, 60, 13, 1)" offset="1"></stop>
        </linearGradient>
        <linearGradient x1="0%" y1="0%" x2="100%" y2="100%" id="SvgjsLinearGradient2132">
            <stop stop-color="rgba(200, 200, 200, 0)" offset="0"></stop>
            <stop stop-color="rgba(200, 200, 200, 1)" offset="1"></stop>
        </linearGradient>
        <linearGradient x1="100%" y1="100%" x2="0%" y2="0%" id="SvgjsLinearGradient2133">
            <stop stop-color="rgba(200, 200, 200, 0)" offset="0"></stop>
            <stop stop-color="rgba(200, 200, 200, 1)" offset="1"></stop>
        </linearGradient>
    </defs>
</svg>